<svg version="1.1" xmlns="http://www.w3.org/2000/svg" xmlns:xlink="http://www.w3.org/1999/xlink" class="tanuki-logo" viewBox="0 0 586 559">
  <path d="m 582.78692,311.92227 -30.5816,-93.9636 a 13.2784,13.2784 0 0 0 -0.7396,-2.5284 L 490.11332,26.574273 A 24.3896,24.3896 0 0 0 466.82452,9.9418725 23.9768,23.9768 0 0 0 443.81092,26.711873 l -58.48,179.963597 H 200.75772 L 142.19172,26.711873 A 23.9768,23.9768 0 0 0 119.28132,9.9418725 h -0.1376 A 24.4584,24.4584 0 0 0 95.923723,26.729073 l -61.404,189.079597 c 0,0.172 -0.1376,0.3096 -0.1892,0.4816 l -31.1319998,95.6492 a 34.8988,34.8988 0 0 0 12.6763998,39.0612 l 268.973597,195.4436 a 13.76,13.76 0 0 0 16.254,-0.086 l 269.0252,-195.3576 a 34.8816,34.8816 0 0 0 12.6592,-39.0784 m -402.05,-77.6236 74.9748,230.7552 -179.980797,-230.7552 m 254.645997,230.8068 71.896,-221.2264 3.096,-9.5804 h 105.092 l -162.8324,208.6016 m 119.4368,-398.472397 52.6836,162.247597 h -105.4532 m -37.8916,27.52 -52.2364,160.7512 -31.1664,95.7352 -83.2824,-256.4864 M 119.02332,44.427873 171.81012,206.67547 H 66.425723 m -34.3656,122.0684 a 7.4132,7.4132 0 0 1 -2.6832,-8.3076 l 23.1168,-71.036 169.540397,217.3564 m 331.9256,-138.0128 -189.9912,137.9612 0.6364,-0.8256 168.904,-216.4792 23.1168,71.0016 a 7.4132,7.4132 0 0 1 -2.666,8.3248"/>
</svg>
